<mxfile host="app.diagrams.net" modified="2020-10-10T15:38:57.749Z" agent="5.0 (Windows NT 10.0; Win64; x64) AppleWebKit/537.36 (KHTML, like Gecko) Chrome/86.0.4240.75 Safari/537.36" etag="R6DWMO2wFjfL9UtR7axK" version="13.7.5" type="github">
  <diagram name="Page-1" id="74e2e168-ea6b-b213-b513-2b3c1d86103e">
    <mxGraphModel dx="1218" dy="765" grid="1" gridSize="10" guides="1" tooltips="1" connect="1" arrows="1" fold="1" page="1" pageScale="1" pageWidth="1100" pageHeight="850" background="#ffffff" math="0" shadow="0">
      <root>
        <mxCell id="0" />
        <mxCell id="1" parent="0" />
        <mxCell id="77e6c97f196da883-1" value="MG Pizza" style="swimlane;html=1;childLayout=stackLayout;startSize=60;rounded=0;shadow=0;labelBackgroundColor=none;strokeWidth=1;fontFamily=Verdana;fontSize=8;align=center;" parent="1" vertex="1">
          <mxGeometry x="70" y="40" width="1230" height="1670" as="geometry" />
        </mxCell>
        <mxCell id="77e6c97f196da883-2" value="Intro" style="swimlane;html=1;startSize=50;" parent="77e6c97f196da883-1" vertex="1">
          <mxGeometry y="60" width="190" height="1610" as="geometry">
            <mxRectangle y="20" width="30" height="730" as="alternateBounds" />
          </mxGeometry>
        </mxCell>
        <mxCell id="77e6c97f196da883-8" value="High String&lt;br&gt;Sus Melody and Chord" style="rounded=1;whiteSpace=wrap;html=1;shadow=0;labelBackgroundColor=none;strokeWidth=1;fontFamily=Verdana;fontSize=8;align=center;fillColor=#d5e8d4;strokeColor=#82b366;" parent="77e6c97f196da883-2" vertex="1">
          <mxGeometry x="20" y="485" width="150" height="61" as="geometry" />
        </mxCell>
        <mxCell id="77e6c97f196da883-9" value="Warm Mid Pad&lt;br&gt;Sus Chord" style="rounded=1;whiteSpace=wrap;html=1;shadow=0;labelBackgroundColor=none;strokeWidth=1;fontFamily=Verdana;fontSize=8;align=center;fillColor=#fff2cc;strokeColor=#d6b656;" parent="77e6c97f196da883-2" vertex="1">
          <mxGeometry x="20" y="695" width="150" height="61" as="geometry" />
        </mxCell>
        <mxCell id="77e6c97f196da883-3" value="BreakDown&lt;br&gt;(First 8 Bar)" style="swimlane;html=1;startSize=50;" parent="77e6c97f196da883-1" vertex="1">
          <mxGeometry x="190" y="60" width="200" height="1610" as="geometry" />
        </mxCell>
        <mxCell id="2bjkUTbexVMFcL-hj4TM-1" value="High String&lt;br&gt;Sus Melody and Chord" style="rounded=1;whiteSpace=wrap;html=1;shadow=0;labelBackgroundColor=none;strokeWidth=1;fontFamily=Verdana;fontSize=8;align=center;fillColor=#d5e8d4;strokeColor=#82b366;" parent="77e6c97f196da883-3" vertex="1">
          <mxGeometry x="25" y="485" width="150" height="61" as="geometry" />
        </mxCell>
        <mxCell id="2bjkUTbexVMFcL-hj4TM-9" value="Warm Mid Pad&lt;br&gt;Pluck Chord" style="rounded=1;whiteSpace=wrap;html=1;shadow=0;labelBackgroundColor=none;strokeWidth=1;fontFamily=Verdana;fontSize=8;align=center;strokeColor=#6F9957;fillColor=#B9C9B8;" parent="77e6c97f196da883-3" vertex="1">
          <mxGeometry x="25" y="580" width="150" height="61" as="geometry" />
        </mxCell>
        <mxCell id="2bjkUTbexVMFcL-hj4TM-3" value="Warm Mid Pad&lt;br&gt;Sus Chord" style="rounded=1;whiteSpace=wrap;html=1;shadow=0;labelBackgroundColor=none;strokeWidth=1;fontFamily=Verdana;fontSize=8;align=center;fillColor=#fff2cc;strokeColor=#d6b656;" parent="77e6c97f196da883-3" vertex="1">
          <mxGeometry x="25" y="695" width="150" height="61" as="geometry" />
        </mxCell>
        <mxCell id="2bjkUTbexVMFcL-hj4TM-2" style="edgeStyle=orthogonalEdgeStyle;rounded=0;orthogonalLoop=1;jettySize=auto;html=1;exitX=1;exitY=0.5;exitDx=0;exitDy=0;entryX=0;entryY=0.5;entryDx=0;entryDy=0;" parent="77e6c97f196da883-1" source="77e6c97f196da883-8" target="2bjkUTbexVMFcL-hj4TM-1" edge="1">
          <mxGeometry relative="1" as="geometry" />
        </mxCell>
        <mxCell id="2bjkUTbexVMFcL-hj4TM-11" value="" style="edgeStyle=orthogonalEdgeStyle;rounded=0;orthogonalLoop=1;jettySize=auto;html=1;" parent="77e6c97f196da883-1" source="2bjkUTbexVMFcL-hj4TM-1" target="2bjkUTbexVMFcL-hj4TM-10" edge="1">
          <mxGeometry relative="1" as="geometry" />
        </mxCell>
        <mxCell id="2bjkUTbexVMFcL-hj4TM-4" style="edgeStyle=orthogonalEdgeStyle;rounded=0;orthogonalLoop=1;jettySize=auto;html=1;" parent="77e6c97f196da883-1" source="77e6c97f196da883-9" target="2bjkUTbexVMFcL-hj4TM-3" edge="1">
          <mxGeometry relative="1" as="geometry" />
        </mxCell>
        <mxCell id="2bjkUTbexVMFcL-hj4TM-13" value="" style="edgeStyle=orthogonalEdgeStyle;rounded=0;orthogonalLoop=1;jettySize=auto;html=1;" parent="77e6c97f196da883-1" source="2bjkUTbexVMFcL-hj4TM-3" target="2bjkUTbexVMFcL-hj4TM-12" edge="1">
          <mxGeometry relative="1" as="geometry" />
        </mxCell>
        <mxCell id="2bjkUTbexVMFcL-hj4TM-16" value="" style="endArrow=none;dashed=1;html=1;strokeWidth=2;exitX=1;exitY=0.5;exitDx=0;exitDy=0;entryX=0;entryY=0.5;entryDx=0;entryDy=0;" parent="77e6c97f196da883-1" source="2bjkUTbexVMFcL-hj4TM-9" target="2bjkUTbexVMFcL-hj4TM-14" edge="1">
          <mxGeometry width="50" height="50" relative="1" as="geometry">
            <mxPoint x="370" y="630" as="sourcePoint" />
            <mxPoint x="410" y="630" as="targetPoint" />
            <Array as="points" />
          </mxGeometry>
        </mxCell>
        <mxCell id="2bjkUTbexVMFcL-hj4TM-25" value="" style="edgeStyle=orthogonalEdgeStyle;rounded=0;orthogonalLoop=1;jettySize=auto;html=1;strokeWidth=2;" parent="77e6c97f196da883-1" source="2bjkUTbexVMFcL-hj4TM-12" target="2bjkUTbexVMFcL-hj4TM-24" edge="1">
          <mxGeometry relative="1" as="geometry" />
        </mxCell>
        <mxCell id="2bjkUTbexVMFcL-hj4TM-27" value="" style="edgeStyle=orthogonalEdgeStyle;rounded=0;orthogonalLoop=1;jettySize=auto;html=1;strokeWidth=2;" parent="77e6c97f196da883-1" source="2bjkUTbexVMFcL-hj4TM-14" target="2bjkUTbexVMFcL-hj4TM-26" edge="1">
          <mxGeometry relative="1" as="geometry" />
        </mxCell>
        <mxCell id="77e6c97f196da883-4" value="BreakDown&lt;br&gt;(Last 8 Bar)" style="swimlane;html=1;startSize=50;" parent="77e6c97f196da883-1" vertex="1">
          <mxGeometry x="390" y="60" width="215" height="1610" as="geometry" />
        </mxCell>
        <mxCell id="nY8iIPvAzV6Sv8cFecZf-1" value="String Rev Wetter" style="rounded=1;whiteSpace=wrap;html=1;shadow=0;labelBackgroundColor=none;strokeWidth=1;fontFamily=Verdana;fontSize=8;align=center;fillColor=#f5f5f5;strokeColor=#666666;fontColor=#333333;" vertex="1" parent="77e6c97f196da883-4">
          <mxGeometry x="-188.75" y="1420" width="380" height="61" as="geometry" />
        </mxCell>
        <mxCell id="2bjkUTbexVMFcL-hj4TM-17" value="Bass Kick 4/4" style="rounded=1;whiteSpace=wrap;html=1;shadow=0;labelBackgroundColor=none;strokeWidth=1;fontFamily=Verdana;fontSize=8;align=center;fillColor=#f8cecc;strokeColor=#b85450;" parent="77e6c97f196da883-4" vertex="1">
          <mxGeometry x="32.5" y="810" width="150" height="61" as="geometry" />
        </mxCell>
        <mxCell id="2bjkUTbexVMFcL-hj4TM-12" value="Warm Mid Pad&lt;br&gt;Sus Chord" style="rounded=1;whiteSpace=wrap;html=1;shadow=0;labelBackgroundColor=none;strokeWidth=1;fontFamily=Verdana;fontSize=8;align=center;fillColor=#fff2cc;strokeColor=#d6b656;" parent="77e6c97f196da883-4" vertex="1">
          <mxGeometry x="32.5" y="695" width="150" height="61" as="geometry" />
        </mxCell>
        <mxCell id="2bjkUTbexVMFcL-hj4TM-14" value="Mid High Pad&lt;br&gt;Pluck Chord" style="rounded=1;whiteSpace=wrap;html=1;shadow=0;labelBackgroundColor=none;strokeWidth=1;fontFamily=Verdana;fontSize=8;align=center;fillColor=#d5e8d4;strokeColor=#98D177;" parent="77e6c97f196da883-4" vertex="1">
          <mxGeometry x="32.5" y="580" width="150" height="61" as="geometry" />
        </mxCell>
        <mxCell id="2bjkUTbexVMFcL-hj4TM-10" value="High String&lt;br&gt;Sus Melody and Chord" style="rounded=1;whiteSpace=wrap;html=1;shadow=0;labelBackgroundColor=none;strokeWidth=1;fontFamily=Verdana;fontSize=8;align=center;fillColor=#d5e8d4;strokeColor=#82b366;" parent="77e6c97f196da883-4" vertex="1">
          <mxGeometry x="32.5" y="485" width="150" height="61" as="geometry" />
        </mxCell>
        <mxCell id="2bjkUTbexVMFcL-hj4TM-18" value="Clap 4/4" style="rounded=1;whiteSpace=wrap;html=1;shadow=0;labelBackgroundColor=none;strokeWidth=1;fontFamily=Verdana;fontSize=8;align=center;fillColor=#f8cecc;strokeColor=#b85450;" parent="77e6c97f196da883-4" vertex="1">
          <mxGeometry x="32.5" y="930" width="150" height="61" as="geometry" />
        </mxCell>
        <mxCell id="2bjkUTbexVMFcL-hj4TM-19" value="Tiny Loop" style="rounded=1;whiteSpace=wrap;html=1;shadow=0;labelBackgroundColor=none;strokeWidth=1;fontFamily=Verdana;fontSize=8;align=center;fillColor=#f8cecc;strokeColor=#b85450;" parent="77e6c97f196da883-4" vertex="1">
          <mxGeometry x="32.5" y="1050" width="150" height="61" as="geometry" />
        </mxCell>
        <mxCell id="2bjkUTbexVMFcL-hj4TM-23" value="" style="edgeStyle=orthogonalEdgeStyle;rounded=0;orthogonalLoop=1;jettySize=auto;html=1;strokeWidth=2;" parent="77e6c97f196da883-1" source="2bjkUTbexVMFcL-hj4TM-18" target="2bjkUTbexVMFcL-hj4TM-22" edge="1">
          <mxGeometry relative="1" as="geometry" />
        </mxCell>
        <mxCell id="77e6c97f196da883-5" value="Build Up" style="swimlane;html=1;startSize=50;" parent="77e6c97f196da883-1" vertex="1">
          <mxGeometry x="605" y="60" width="197.5" height="1610" as="geometry" />
        </mxCell>
        <mxCell id="77e6c97f196da883-36" style="edgeStyle=orthogonalEdgeStyle;rounded=1;html=1;labelBackgroundColor=none;startArrow=none;startFill=0;startSize=5;endArrow=classicThin;endFill=1;endSize=5;jettySize=auto;orthogonalLoop=1;strokeWidth=1;fontFamily=Verdana;fontSize=8" parent="77e6c97f196da883-5" edge="1">
          <mxGeometry relative="1" as="geometry">
            <mxPoint x="80" y="620" as="sourcePoint" />
          </mxGeometry>
        </mxCell>
        <mxCell id="2bjkUTbexVMFcL-hj4TM-30" value="Build Up Lead" style="rounded=1;whiteSpace=wrap;html=1;shadow=0;labelBackgroundColor=none;strokeWidth=1;fontFamily=Verdana;fontSize=8;align=center;fillColor=#d5e8d4;strokeColor=#98D177;" parent="77e6c97f196da883-5" vertex="1">
          <mxGeometry x="23.75" y="80" width="150" height="60" as="geometry" />
        </mxCell>
        <mxCell id="2bjkUTbexVMFcL-hj4TM-28" value="High Arp" style="rounded=1;whiteSpace=wrap;html=1;shadow=0;labelBackgroundColor=none;strokeWidth=1;fontFamily=Verdana;fontSize=8;align=center;fillColor=#d5e8d4;strokeColor=#98D177;" parent="77e6c97f196da883-5" vertex="1">
          <mxGeometry x="23.75" y="180" width="150" height="60" as="geometry" />
        </mxCell>
        <mxCell id="2bjkUTbexVMFcL-hj4TM-26" value="Mid High Pad&lt;br&gt;Pluck Chord" style="rounded=1;whiteSpace=wrap;html=1;shadow=0;labelBackgroundColor=none;strokeWidth=1;fontFamily=Verdana;fontSize=8;align=center;fillColor=#d5e8d4;strokeColor=#98D177;" parent="77e6c97f196da883-5" vertex="1">
          <mxGeometry x="23.75" y="580" width="150" height="61" as="geometry" />
        </mxCell>
        <mxCell id="2bjkUTbexVMFcL-hj4TM-24" value="Warm Mid Pad&lt;br&gt;Sus Chord" style="rounded=1;whiteSpace=wrap;html=1;shadow=0;labelBackgroundColor=none;strokeWidth=1;fontFamily=Verdana;fontSize=8;align=center;fillColor=#fff2cc;strokeColor=#d6b656;" parent="77e6c97f196da883-5" vertex="1">
          <mxGeometry x="23.75" y="695" width="150" height="61" as="geometry" />
        </mxCell>
        <mxCell id="2bjkUTbexVMFcL-hj4TM-31" value="Build Up Drum" style="rounded=1;whiteSpace=wrap;html=1;shadow=0;labelBackgroundColor=none;strokeWidth=1;fontFamily=Verdana;fontSize=8;align=center;fillColor=#f8cecc;strokeColor=#b85450;" parent="77e6c97f196da883-5" vertex="1">
          <mxGeometry x="23.75" y="810" width="150" height="61" as="geometry" />
        </mxCell>
        <mxCell id="2bjkUTbexVMFcL-hj4TM-22" value="Clap 4/4" style="rounded=1;whiteSpace=wrap;html=1;shadow=0;labelBackgroundColor=none;strokeWidth=1;fontFamily=Verdana;fontSize=8;align=center;fillColor=#f8cecc;strokeColor=#b85450;" parent="77e6c97f196da883-5" vertex="1">
          <mxGeometry x="23.75" y="930" width="150" height="61" as="geometry" />
        </mxCell>
        <mxCell id="2bjkUTbexVMFcL-hj4TM-32" value="Lifting FX" style="rounded=1;whiteSpace=wrap;html=1;shadow=0;labelBackgroundColor=none;strokeWidth=1;fontFamily=Verdana;fontSize=8;align=center;fillColor=#dae8fc;strokeColor=#6c8ebf;" parent="77e6c97f196da883-5" vertex="1">
          <mxGeometry x="23.75" y="1150" width="150" height="61" as="geometry" />
        </mxCell>
        <mxCell id="nY8iIPvAzV6Sv8cFecZf-2" value="Build Up Lead&lt;br&gt;Cutoff" style="rounded=1;whiteSpace=wrap;html=1;shadow=0;labelBackgroundColor=none;strokeWidth=1;fontFamily=Verdana;fontSize=8;align=center;fillColor=#f5f5f5;strokeColor=#666666;fontColor=#333333;" vertex="1" parent="77e6c97f196da883-5">
          <mxGeometry x="37.5" y="1420" width="122.5" height="61" as="geometry" />
        </mxCell>
        <mxCell id="77e6c97f196da883-6" value="Drop" style="swimlane;html=1;startSize=50;" parent="77e6c97f196da883-1" vertex="1">
          <mxGeometry x="802.5" y="60" width="217.5" height="1610" as="geometry" />
        </mxCell>
        <mxCell id="nY8iIPvAzV6Sv8cFecZf-4" value="White Noise" style="rounded=1;whiteSpace=wrap;html=1;shadow=0;labelBackgroundColor=none;strokeWidth=1;fontFamily=Verdana;fontSize=8;align=center;fillColor=#dae8fc;strokeColor=#6c8ebf;" vertex="1" parent="77e6c97f196da883-6">
          <mxGeometry x="37.5" y="1150" width="150" height="61" as="geometry" />
        </mxCell>
        <mxCell id="nY8iIPvAzV6Sv8cFecZf-3" value="Cymbal 4/4" style="rounded=1;whiteSpace=wrap;html=1;shadow=0;labelBackgroundColor=none;strokeWidth=1;fontFamily=Verdana;fontSize=8;align=center;fillColor=#f8cecc;strokeColor=#b85450;" vertex="1" parent="77e6c97f196da883-6">
          <mxGeometry x="33.75" y="1050" width="150" height="61" as="geometry" />
        </mxCell>
        <mxCell id="2bjkUTbexVMFcL-hj4TM-42" value="Kick 4/4" style="rounded=1;whiteSpace=wrap;html=1;shadow=0;labelBackgroundColor=none;strokeWidth=1;fontFamily=Verdana;fontSize=8;align=center;fillColor=#f8cecc;strokeColor=#b85450;" parent="77e6c97f196da883-6" vertex="1">
          <mxGeometry x="33.75" y="810" width="150" height="61" as="geometry" />
        </mxCell>
        <mxCell id="2bjkUTbexVMFcL-hj4TM-41" value="Sub Bass" style="rounded=1;whiteSpace=wrap;html=1;shadow=0;labelBackgroundColor=none;strokeWidth=1;fontFamily=Verdana;fontSize=8;align=center;fillColor=#fff2cc;strokeColor=#d6b656;" parent="77e6c97f196da883-6" vertex="1">
          <mxGeometry x="37.5" y="390" width="150" height="60" as="geometry" />
        </mxCell>
        <mxCell id="2bjkUTbexVMFcL-hj4TM-36" value="Drop Lead" style="rounded=1;whiteSpace=wrap;html=1;shadow=0;labelBackgroundColor=none;strokeWidth=1;fontFamily=Verdana;fontSize=8;align=center;fillColor=#d5e8d4;strokeColor=#98D177;" parent="77e6c97f196da883-6" vertex="1">
          <mxGeometry x="37.5" y="80" width="150" height="60" as="geometry" />
        </mxCell>
        <mxCell id="2bjkUTbexVMFcL-hj4TM-39" value="Saw&lt;br&gt;Chord and Melody" style="rounded=1;whiteSpace=wrap;html=1;shadow=0;labelBackgroundColor=none;strokeWidth=1;fontFamily=Verdana;fontSize=8;align=center;fillColor=#d5e8d4;strokeColor=#82b366;" parent="77e6c97f196da883-6" vertex="1">
          <mxGeometry x="37.5" y="180" width="150" height="60" as="geometry" />
        </mxCell>
        <mxCell id="2bjkUTbexVMFcL-hj4TM-40" value="High Rolling Bass" style="rounded=1;whiteSpace=wrap;html=1;shadow=0;labelBackgroundColor=none;strokeWidth=1;fontFamily=Verdana;fontSize=8;align=center;fillColor=#fff2cc;strokeColor=#d6b656;" parent="77e6c97f196da883-6" vertex="1">
          <mxGeometry x="37.5" y="290" width="150" height="60" as="geometry" />
        </mxCell>
        <mxCell id="2bjkUTbexVMFcL-hj4TM-43" value="Snare 2/4" style="rounded=1;whiteSpace=wrap;html=1;shadow=0;labelBackgroundColor=none;strokeWidth=1;fontFamily=Verdana;fontSize=8;align=center;fillColor=#f8cecc;strokeColor=#b85450;" parent="77e6c97f196da883-6" vertex="1">
          <mxGeometry x="33.75" y="930" width="150" height="61" as="geometry" />
        </mxCell>
        <mxCell id="77e6c97f196da883-7" value="Outro" style="swimlane;html=1;startSize=50;" parent="77e6c97f196da883-1" vertex="1">
          <mxGeometry x="1020" y="60" width="210" height="1610" as="geometry" />
        </mxCell>
        <mxCell id="2bjkUTbexVMFcL-hj4TM-44" value="Transistion FX" style="rounded=1;whiteSpace=wrap;html=1;shadow=0;labelBackgroundColor=none;strokeWidth=1;fontFamily=Verdana;fontSize=8;align=center;fillColor=#dae8fc;strokeColor=#6c8ebf;" parent="1" vertex="1">
          <mxGeometry x="200" y="1639" width="122.5" height="61" as="geometry" />
        </mxCell>
        <mxCell id="2bjkUTbexVMFcL-hj4TM-45" value="Transistion FX" style="rounded=1;whiteSpace=wrap;html=1;shadow=0;labelBackgroundColor=none;strokeWidth=1;fontFamily=Verdana;fontSize=8;align=center;fillColor=#dae8fc;strokeColor=#6c8ebf;" parent="1" vertex="1">
          <mxGeometry x="400" y="1639" width="122.5" height="61" as="geometry" />
        </mxCell>
        <mxCell id="2bjkUTbexVMFcL-hj4TM-46" value="Transistion FX" style="rounded=1;whiteSpace=wrap;html=1;shadow=0;labelBackgroundColor=none;strokeWidth=1;fontFamily=Verdana;fontSize=8;align=center;fillColor=#dae8fc;strokeColor=#6c8ebf;" parent="1" vertex="1">
          <mxGeometry x="620" y="1639" width="122.5" height="61" as="geometry" />
        </mxCell>
      </root>
    </mxGraphModel>
  </diagram>
</mxfile>
